<svg id="Capa_1" enable-background="new 0 0 512 512" height="512" viewBox="0 0 512 512" width="512" xmlns="http://www.w3.org/2000/svg"><g><g><g><g><g><g><path d="m65.702 0c-36.229 0-65.702 29.474-65.702 65.702v373.609l91.159-9.555 18.411-191.896-18.411-237.86z" fill="#5eb16a"/><g><path d="m91.159 0v401.074l159.935-16.763 32.078-177.814-32.078-206.497z" fill="#89ce6d"/><path d="m403.173 0h-152.079v386.601l152.079-15.829z" fill="#5eb16a"/></g><g><g><path d="m80.664 386.601c-29.413 0-53.258 23.844-53.258 53.258 0 .512.024 1.019.039 1.527.811 28.705 24.318 51.73 53.219 51.73h170.43v-106.515z" fill="#f7fcff"/><path d="m360.568 441.43c0-.015.001-.03.001-.044.025-22.362 19.778-40.546 42.604-40.546l-26.251-14.239h-125.828v106.515h133.425l18.655-11.139c-22.842 0-42.606-18.165-42.606-40.547z" fill="#ecf3fb"/></g><g><path d="m70.614 400.84h20.545l9.787-16.152-9.787-13.915h-20.545c-38.937-.001-70.614 31.676-70.614 70.613s31.677 70.614 70.614 70.614h20.545l13.161-15.032-13.161-15.032-20.545-.003c-22.357 0-40.546-18.189-40.546-40.546 0-22.358 18.189-40.547 40.546-40.547z" fill="#89ce6d"/></g></g><g><path d="m91.159 456.154h159.935l14.819-14.768-14.819-15.3h-159.935z" fill="#ecf3fb"/><g fill="#5eb16a"><path d="m91.159 370.772v30.068h159.935l13.225-14.239-13.225-15.829z"/><path d="m91.159 512h159.935l17.137-12.898-17.137-17.145-159.935-.022z"/></g></g><path d="m251.094 370.772h152.08v30.068h-152.08z" fill="#009b5c"/><path d="m363.401 456.154c-1.822-4.568-2.833-9.531-2.833-14.723 0-.015.001-.03.001-.044.006-5.412 1.106-10.576 3.082-15.3h-112.557v30.068h112.307z" fill="#e0e6f5"/><g fill="#5eb16a"><path d="m200.984 88.171v29.945h50.11l14.819-14.973-14.819-14.972z"/><path d="m167.13 153.181v29.945h83.964l17.137-14.973-17.137-14.972z"/></g><g fill="#009b5c"><path d="m251.094 88.171h50.11v29.945h-50.11z"/><path d="m251.094 153.181h83.963v29.945h-83.963z"/></g></g><path d="m403.173 512v-30.023l-152.079-.02v30.043z" fill="#009b5c"/></g></g></g></g><g><path d="m294.441 403.221c0 59.981 48.798 108.779 108.78 108.779l18.297-102.702-18.297-114.856c-59.982 0-108.78 48.798-108.78 108.779z" fill="#fd465f"/><path d="m403.221 294.442v217.559c59.981-.001 108.779-48.799 108.779-108.78s-48.798-108.779-108.779-108.779z" fill="#ce0c51"/></g><g><path d="m388.248 357.589v30.659h-30.659v29.945h30.659v30.659h14.973l4.137-45.631-4.137-45.632z" fill="#f7fcff"/><path d="m418.194 388.248v-30.659h-14.973v91.263h14.973v-30.659h30.658v-29.945z" fill="#e0e6f5"/></g></g></svg>